<?xml version="1.0" encoding="UTF-8" standalone="no"?>
<!-- Generator: Adobe Illustrator 19.0.0, SVG Export Plug-In . SVG Version: 6.00 Build 0)  -->

<svg
   version="1.1"
   id="Layer_1"
   x="0px"
   y="0px"
   viewBox="0 0 2198.523 2132.2791"
   xml:space="preserve"
   inkscape:version="1.2.2 (732a01da63, 2022-12-09)"
   sodipodi:docname="fusion.svg"
   width="2198.5229"
   height="2132.2791"
   inkscape:export-filename="fusion.png"
   inkscape:export-xdpi="90"
   inkscape:export-ydpi="90"
   xmlns:inkscape="http://www.inkscape.org/namespaces/inkscape"
   xmlns:sodipodi="http://sodipodi.sourceforge.net/DTD/sodipodi-0.dtd"
   xmlns:xlink="http://www.w3.org/1999/xlink"
   xmlns="http://www.w3.org/2000/svg"
   xmlns:svg="http://www.w3.org/2000/svg"
   xmlns:rdf="http://www.w3.org/1999/02/22-rdf-syntax-ns#"
   xmlns:cc="http://creativecommons.org/ns#"
   xmlns:dc="http://purl.org/dc/elements/1.1/"><metadata
   id="metadata43"><rdf:RDF><cc:Work
       rdf:about=""><dc:format>image/svg+xml</dc:format><dc:type
         rdf:resource="http://purl.org/dc/dcmitype/StillImage" /></cc:Work></rdf:RDF></metadata><defs
   id="defs41"><linearGradient
     inkscape:collect="always"
     id="linearGradient4488"><stop
       style="stop-color:#f68888;stop-opacity:1;"
       offset="0"
       id="stop4484" /><stop
       style="stop-color:#109ad9;stop-opacity:1;"
       offset="1"
       id="stop4486" /></linearGradient><linearGradient
     inkscape:collect="always"
     id="linearGradient2217"><stop
       style="stop-color:#089fde;stop-opacity:1;"
       offset="0"
       id="stop2213" /><stop
       style="stop-color:#d8076c;stop-opacity:1;"
       offset="1"
       id="stop2215" /></linearGradient><linearGradient
     inkscape:collect="always"
     id="linearGradient1251"><stop
       style="stop-color:#8eecff;stop-opacity:1;"
       offset="0"
       id="stop1247" /><stop
       style="stop-color:#156ef6;stop-opacity:1;"
       offset="1"
       id="stop1249" /></linearGradient><linearGradient
     inkscape:collect="always"
     id="linearGradient1987"><stop
       style="stop-color:#2e7cf5;stop-opacity:1;"
       offset="0"
       id="stop1983" /><stop
       style="stop-color:#f52e57;stop-opacity:1;"
       offset="1"
       id="stop1985" /></linearGradient><linearGradient
     inkscape:collect="always"
     id="linearGradient1979"><stop
       style="stop-color:#93e9fa;stop-opacity:1;"
       offset="0"
       id="stop1975" /><stop
       style="stop-color:#93bafa;stop-opacity:1;"
       offset="1"
       id="stop1977" /></linearGradient><linearGradient
     inkscape:collect="always"
     id="linearGradient1884"><stop
       style="stop-color:#00a4e2;stop-opacity:1;"
       offset="0"
       id="stop1880" /><stop
       style="stop-color:#e20067;stop-opacity:1;"
       offset="1"
       id="stop1882" /></linearGradient><clipPath
     clipPathUnits="userSpaceOnUse"
     id="clipPath24"><path
       d="m 11794.4,5026.5 c 0,0 77.1,-1387.4 1812.6,-1423 0,0 -1381.8,81.8 -1812.6,1423 z"
       id="path22" /></clipPath><linearGradient
     x1="0"
     y1="0"
     x2="1"
     y2="0"
     gradientUnits="userSpaceOnUse"
     gradientTransform="matrix(1102.93,-97.0125,-97.0125,-1102.93,15287.8,4083.9)"
     spreadMethod="pad"
     id="linearGradient32"><stop
       style="stop-opacity:1;stop-color:#00adef"
       offset="0"
       id="stop26" /><stop
       style="stop-opacity:1;stop-color:#00adef"
       offset="0.295699"
       id="stop28" /><stop
       style="stop-opacity:1;stop-color:#2c3892"
       offset="1"
       id="stop30" /></linearGradient><clipPath
     clipPathUnits="userSpaceOnUse"
     id="clipPath42"><path
       d="m 11763.2,5826.6 c 0,0 -528.9,-858.3 348.5,-1839 0,0 -676.7,812.2 -348.5,1839 z"
       id="path40" /></clipPath><linearGradient
     x1="0"
     y1="0"
     x2="1"
     y2="0"
     gradientUnits="userSpaceOnUse"
     gradientTransform="matrix(527.16,-666.996,-501.795,-594.804,13172.5,3340.5)"
     spreadMethod="pad"
     id="linearGradient50"><stop
       style="stop-opacity:1;stop-color:#00adef"
       offset="0"
       id="stop44" /><stop
       style="stop-opacity:1;stop-color:#00adef"
       offset="0.295699"
       id="stop46" /><stop
       style="stop-opacity:1;stop-color:#2c3892"
       offset="1"
       id="stop48" /></linearGradient><clipPath
     clipPathUnits="userSpaceOnUse"
     id="clipPath72"><path
       d="m 2588.92,5926.2 c 0,0 77.06,-1387.4 1812.53,-1423 0,0 -1381.79,81.8 -1812.53,1423 z"
       id="path70" /></clipPath><linearGradient
     x1="0"
     y1="0"
     x2="1"
     y2="0"
     gradientUnits="userSpaceOnUse"
     gradientTransform="matrix(1102.93,-97.0125,-97.0125,-1102.93,6082.28,4983.6)"
     spreadMethod="pad"
     id="linearGradient80"><stop
       style="stop-opacity:1;stop-color:#00adef"
       offset="0"
       id="stop74" /><stop
       style="stop-opacity:1;stop-color:#00adef"
       offset="0.295699"
       id="stop76" /><stop
       style="stop-opacity:1;stop-color:#2c3892"
       offset="1"
       id="stop78" /></linearGradient><clipPath
     clipPathUnits="userSpaceOnUse"
     id="clipPath90"><path
       d="m 2557.65,6726.3 c 0,0 -528.9,-858.3 348.55,-1839 0,0 -676.73,812.3 -348.55,1839 z"
       id="path88" /></clipPath><linearGradient
     x1="0"
     y1="0"
     x2="1"
     y2="0"
     gradientUnits="userSpaceOnUse"
     gradientTransform="matrix(527.16,-666.996,-501.795,-594.804,3967.03,4240.2)"
     spreadMethod="pad"
     id="linearGradient98"><stop
       style="stop-opacity:1;stop-color:#00adef"
       offset="0"
       id="stop92" /><stop
       style="stop-opacity:1;stop-color:#00adef"
       offset="0.295699"
       id="stop94" /><stop
       style="stop-opacity:1;stop-color:#2c3892"
       offset="1"
       id="stop96" /></linearGradient><clipPath
     clipPathUnits="userSpaceOnUse"
     id="clipPath110"><path
       d="m 12268.9,14695.1 c 0,0 488.2,-2310.6 3412.5,-1921.6 0,0 -2342.2,-219.9 -3412.5,1921.6 z"
       id="path108" /></clipPath><linearGradient
     x1="0"
     y1="0"
     x2="1"
     y2="0"
     gradientUnits="userSpaceOnUse"
     gradientTransform="matrix(1877.7,122.261,122.261,-1877.7,18380.5,14015.2)"
     spreadMethod="pad"
     id="linearGradient118"><stop
       style="stop-opacity:1;stop-color:#00adef"
       offset="0"
       id="stop112" /><stop
       style="stop-opacity:1;stop-color:#00adef"
       offset="0.295699"
       id="stop114" /><stop
       style="stop-opacity:1;stop-color:#2c3892"
       offset="1"
       id="stop116" /></linearGradient><clipPath
     clipPathUnits="userSpaceOnUse"
     id="clipPath128"><path
       d="m 15815.2,16419 c -93.9,4.2 -182.4,2.3 -266.1,-4.9 -314.7,-27.2 -559,-128.8 -745.9,-255.2 -405.3,-274.1 -540.8,-664.8 -540.8,-664.8 113.4,159.3 245.2,290.2 385,397.8 252.9,194.4 532.5,312.5 778.9,384.3 115.1,33.6 222.9,57 317.5,73.3 88.4,15.3 165.2,24.4 225.2,29.9 9.2,8.1 18.3,16.2 27.6,24.2 -62.5,7.7 -123,12.8 -181.4,15.4 z"
       id="path126" /></clipPath><linearGradient
     x1="0"
     y1="0"
     x2="1"
     y2="0"
     gradientUnits="userSpaceOnUse"
     gradientTransform="matrix(45643.7,12448.3,12448.3,-45643.7,-4296.91,10731.7)"
     spreadMethod="pad"
     id="linearGradient134"><stop
       style="stop-opacity:1;stop-color:#00adef"
       offset="0"
       id="stop130" /><stop
       style="stop-opacity:1;stop-color:#2c3892"
       offset="1"
       id="stop132" /></linearGradient><clipPath
     clipPathUnits="userSpaceOnUse"
     id="clipPath144"><path
       d="m 14060.1,14010 c -134.5,277.1 -200,602.2 -180.6,928.5 27.2,456.4 219.9,1043.4 940.1,1403.4 -913.5,-342 -1143.8,-1002.5 -1173.7,-1504.7 -19.4,-326.4 46.1,-651.5 180.6,-928.6 833.6,-1717.7 2656.1,-937.3 3006,-767.5 -617.9,-240.7 -2058.1,-602.9 -2772.4,868.9 z"
       id="path142" /></clipPath><linearGradient
     x1="0"
     y1="0"
     x2="1"
     y2="0"
     gradientUnits="userSpaceOnUse"
     gradientTransform="matrix(6161.75,1680.48,1680.48,-6161.75,13455.7,14066)"
     spreadMethod="pad"
     id="linearGradient150"><stop
       style="stop-opacity:1;stop-color:#00adef"
       offset="0"
       id="stop146" /><stop
       style="stop-opacity:1;stop-color:#2c3892"
       offset="1"
       id="stop148" /></linearGradient><clipPath
     clipPathUnits="userSpaceOnUse"
     id="clipPath160"><path
       d="m 15129.5,15957.6 c 0,0 496.1,418.4 1103.8,-95.2 0,0 -562.1,334.3 -1103.8,95.2 z"
       id="path158" /></clipPath><linearGradient
     x1="0"
     y1="0"
     x2="1"
     y2="0"
     gradientUnits="userSpaceOnUse"
     gradientTransform="matrix(3323.64,-920.891,-920.891,-3323.64,14686.1,16242.3)"
     spreadMethod="pad"
     id="linearGradient166"><stop
       style="stop-opacity:1;stop-color:#00adef"
       offset="0"
       id="stop162" /><stop
       style="stop-opacity:1;stop-color:#2c3892"
       offset="1"
       id="stop164" /></linearGradient><clipPath
     clipPathUnits="userSpaceOnUse"
     id="clipPath176"><path
       d="m 3295.49,13753.6 c 1451.93,-1428.9 3276.78,-606.3 3276.78,-606.3 -2246.89,-1119.2 -3276.78,606.3 -3276.78,606.3 z m -290.32,365.3 c 430.74,-1341.3 1812.53,-1423.1 1812.53,-1423.1 -1735.47,35.6 -1812.53,1423.1 -1812.53,1423.1 z M 2973.9,14919 C 2645.72,13892.2 3322.45,13079.9 3322.45,13079.9 2445,14060.6 2973.9,14919 2973.9,14919 Z m 4653.29,-370.1 c -442.85,-84.5 -987.83,-283.3 -1596.4,-704.2 0,0 -1999.71,-1408.2 -2707.57,390.8 -0.51,1.3 -0.77,1.9 -0.77,1.9 0.26,-0.6 0.52,-1.3 0.77,-1.9 25.21,-62.5 675.94,-1612.1 2624.78,-84.1 655.72,514.1 1201.94,714.2 1635.44,756.9 -51.73,229.6 -135.58,447 -246.61,647.3 522,341.4 1173.81,482.5 1173.81,482.5 -511.71,46.1 -1002.86,-196.2 -1254.21,-347.8 -0.39,0.6 -0.78,1.3 -1.17,1.9 -356.8,-210.9 -754.06,-531.5 -1150.74,-1018.5 0,0 -1528.42,-1909.4 -2709.28,-378.8 -0.85,1.1 -1.28,1.7 -1.28,1.7 0.43,-0.6 0.85,-1.1 1.28,-1.7 41.63,-53 1098.17,-1360.1 2544.36,650.2 380.61,529.1 750.35,855 1086.94,1049.3 -450.29,508.5 -1108.07,829.1 -1840.74,829.1 -1357.39,0 -2457.77,-1100.4 -2457.77,-2457.8 0,-1357.3 1100.38,-2457.7 2457.77,-2457.7 1357.39,0 2457.77,1100.4 2457.77,2457.7 0,14.9 -0.15,29.8 -0.42,44.7 433.05,118.4 814.79,137.4 814.79,137.4 -285.69,74 -580.16,53 -830.75,1.1 z"
       id="path174" /></clipPath><linearGradient
     x1="0"
     y1="0"
     x2="1"
     y2="0"
     gradientUnits="userSpaceOnUse"
     gradientTransform="matrix(5782.61,0,0,-5782.61,2728.03,14365.7)"
     spreadMethod="pad"
     id="linearGradient184"><stop
       style="stop-opacity:1;stop-color:#00adef"
       offset="0"
       id="stop178" /><stop
       style="stop-opacity:1;stop-color:#00adef"
       offset="0.295699"
       id="stop180" /><stop
       style="stop-opacity:1;stop-color:#2c3892"
       offset="1"
       id="stop182" /></linearGradient><clipPath
     clipPathUnits="userSpaceOnUse"
     id="clipPath24-4"><path
       d="m 11794.4,5026.5 c 0,0 77.1,-1387.4 1812.6,-1423 0,0 -1381.8,81.8 -1812.6,1423 z"
       id="path22-6" /></clipPath><clipPath
     clipPathUnits="userSpaceOnUse"
     id="clipPath42-5"><path
       d="m 11763.2,5826.6 c 0,0 -528.9,-858.3 348.5,-1839 0,0 -676.7,812.2 -348.5,1839 z"
       id="path40-5" /></clipPath><clipPath
     clipPathUnits="userSpaceOnUse"
     id="clipPath72-7"><path
       d="m 2588.92,5926.2 c 0,0 77.06,-1387.4 1812.53,-1423 0,0 -1381.79,81.8 -1812.53,1423 z"
       id="path70-3" /></clipPath><clipPath
     clipPathUnits="userSpaceOnUse"
     id="clipPath90-9"><path
       d="m 2557.65,6726.3 c 0,0 -528.9,-858.3 348.55,-1839 0,0 -676.73,812.3 -348.55,1839 z"
       id="path88-6" /></clipPath><clipPath
     clipPathUnits="userSpaceOnUse"
     id="clipPath110-5"><path
       d="m 12268.9,14695.1 c 0,0 488.2,-2310.6 3412.5,-1921.6 0,0 -2342.2,-219.9 -3412.5,1921.6 z"
       id="path108-9" /></clipPath><clipPath
     clipPathUnits="userSpaceOnUse"
     id="clipPath128-9"><path
       d="m 15815.2,16419 c -93.9,4.2 -182.4,2.3 -266.1,-4.9 -314.7,-27.2 -559,-128.8 -745.9,-255.2 -405.3,-274.1 -540.8,-664.8 -540.8,-664.8 113.4,159.3 245.2,290.2 385,397.8 252.9,194.4 532.5,312.5 778.9,384.3 115.1,33.6 222.9,57 317.5,73.3 88.4,15.3 165.2,24.4 225.2,29.9 9.2,8.1 18.3,16.2 27.6,24.2 -62.5,7.7 -123,12.8 -181.4,15.4 z"
       id="path126-1" /></clipPath><clipPath
     clipPathUnits="userSpaceOnUse"
     id="clipPath144-7"><path
       d="m 14060.1,14010 c -134.5,277.1 -200,602.2 -180.6,928.5 27.2,456.4 219.9,1043.4 940.1,1403.4 -913.5,-342 -1143.8,-1002.5 -1173.7,-1504.7 -19.4,-326.4 46.1,-651.5 180.6,-928.6 833.6,-1717.7 2656.1,-937.3 3006,-767.5 -617.9,-240.7 -2058.1,-602.9 -2772.4,868.9 z"
       id="path142-4" /></clipPath><clipPath
     clipPathUnits="userSpaceOnUse"
     id="clipPath160-0"><path
       d="m 15129.5,15957.6 c 0,0 496.1,418.4 1103.8,-95.2 0,0 -562.1,334.3 -1103.8,95.2 z"
       id="path158-9" /></clipPath><clipPath
     clipPathUnits="userSpaceOnUse"
     id="clipPath176-8"><path
       d="m 3295.49,13753.6 c 1451.93,-1428.9 3276.78,-606.3 3276.78,-606.3 -2246.89,-1119.2 -3276.78,606.3 -3276.78,606.3 z m -290.32,365.3 c 430.74,-1341.3 1812.53,-1423.1 1812.53,-1423.1 -1735.47,35.6 -1812.53,1423.1 -1812.53,1423.1 z M 2973.9,14919 C 2645.72,13892.2 3322.45,13079.9 3322.45,13079.9 2445,14060.6 2973.9,14919 2973.9,14919 Z m 4653.29,-370.1 c -442.85,-84.5 -987.83,-283.3 -1596.4,-704.2 0,0 -1999.71,-1408.2 -2707.57,390.8 -0.51,1.3 -0.77,1.9 -0.77,1.9 0.26,-0.6 0.52,-1.3 0.77,-1.9 25.21,-62.5 675.94,-1612.1 2624.78,-84.1 655.72,514.1 1201.94,714.2 1635.44,756.9 -51.73,229.6 -135.58,447 -246.61,647.3 522,341.4 1173.81,482.5 1173.81,482.5 -511.71,46.1 -1002.86,-196.2 -1254.21,-347.8 -0.39,0.6 -0.78,1.3 -1.17,1.9 -356.8,-210.9 -754.06,-531.5 -1150.74,-1018.5 0,0 -1528.42,-1909.4 -2709.28,-378.8 -0.85,1.1 -1.28,1.7 -1.28,1.7 0.43,-0.6 0.85,-1.1 1.28,-1.7 41.63,-53 1098.17,-1360.1 2544.36,650.2 380.61,529.1 750.35,855 1086.94,1049.3 -450.29,508.5 -1108.07,829.1 -1840.74,829.1 -1357.39,0 -2457.77,-1100.4 -2457.77,-2457.8 0,-1357.3 1100.38,-2457.7 2457.77,-2457.7 1357.39,0 2457.77,1100.4 2457.77,2457.7 0,14.9 -0.15,29.8 -0.42,44.7 433.05,118.4 814.79,137.4 814.79,137.4 -285.69,74 -580.16,53 -830.75,1.1 z"
       id="path174-2" /></clipPath><linearGradient
     x1="0"
     y1="0"
     x2="1"
     y2="0"
     gradientUnits="userSpaceOnUse"
     gradientTransform="matrix(5782.61,0,0,-5782.61,2728.03,14365.7)"
     spreadMethod="pad"
     id="linearGradient184-3"><stop
       style="stop-opacity:1;stop-color:#00adef"
       offset="0"
       id="stop178-5" /><stop
       style="stop-opacity:1;stop-color:#00adef"
       offset="0.295699"
       id="stop180-0" /><stop
       style="stop-opacity:1;stop-color:#2c3892"
       offset="1"
       id="stop182-2" /></linearGradient><linearGradient
     inkscape:collect="always"
     xlink:href="#linearGradient1884"
     id="linearGradient1886"
     x1="1170.9688"
     y1="2126.9771"
     x2="1165.3119"
     y2="1702.7131"
     gradientUnits="userSpaceOnUse"
     gradientTransform="matrix(0.94309495,0,0,0.94309495,40.467644,42.732778)" /><linearGradient
     inkscape:collect="always"
     xlink:href="#linearGradient4488"
     id="linearGradient1981"
     x1="4568.4478"
     y1="10164.209"
     x2="4568.4478"
     y2="101.71826"
     gradientUnits="userSpaceOnUse" /><linearGradient
     inkscape:collect="always"
     xlink:href="#linearGradient2217"
     id="linearGradient1989"
     x1="6734.542"
     y1="10380.819"
     x2="6734.542"
     y2="-134.5829"
     gradientUnits="userSpaceOnUse" /><linearGradient
     inkscape:collect="always"
     xlink:href="#linearGradient1987"
     id="linearGradient2001"
     gradientUnits="userSpaceOnUse"
     x1="6734.542"
     y1="10380.819"
     x2="6734.542"
     y2="-134.5829" /><linearGradient
     inkscape:collect="always"
     xlink:href="#linearGradient1987"
     id="linearGradient2003"
     gradientUnits="userSpaceOnUse"
     x1="6734.542"
     y1="10380.819"
     x2="6734.542"
     y2="-134.5829" /><linearGradient
     inkscape:collect="always"
     xlink:href="#linearGradient1987"
     id="linearGradient2005"
     gradientUnits="userSpaceOnUse"
     x1="6734.542"
     y1="10380.819"
     x2="6734.542"
     y2="-134.5829" /><linearGradient
     inkscape:collect="always"
     xlink:href="#linearGradient1251"
     id="linearGradient2007"
     gradientUnits="userSpaceOnUse"
     x1="4568.4478"
     y1="10213.438"
     x2="4568.4478"
     y2="101.71826" /><linearGradient
     inkscape:collect="always"
     xlink:href="#linearGradient1979"
     id="linearGradient2009"
     gradientUnits="userSpaceOnUse"
     x1="4568.4478"
     y1="10380.818"
     x2="4568.4478"
     y2="101.71826" /><linearGradient
     inkscape:collect="always"
     xlink:href="#linearGradient1979"
     id="linearGradient2011"
     gradientUnits="userSpaceOnUse"
     x1="4568.4478"
     y1="10380.818"
     x2="4568.4478"
     y2="101.71826" /></defs><sodipodi:namedview
   pagecolor="#ffffff"
   bordercolor="#666666"
   borderopacity="1"
   objecttolerance="10"
   gridtolerance="10"
   guidetolerance="10"
   inkscape:pageopacity="0"
   inkscape:pageshadow="2"
   inkscape:window-width="3840"
   inkscape:window-height="2126"
   id="namedview39"
   showgrid="false"
   inkscape:zoom="0.7071068"
   inkscape:cx="863.37736"
   inkscape:cy="1236.0226"
   inkscape:window-x="-11"
   inkscape:window-y="-11"
   inkscape:window-maximized="1"
   inkscape:current-layer="Layer_1"
   fit-margin-top="100"
   fit-margin-left="100"
   fit-margin-right="100"
   fit-margin-bottom="100"
   inkscape:pagecheckerboard="0"
   inkscape:showpageshadow="0"
   inkscape:deskcolor="#d1d1d1" /><g
   id="g9"
   transform="translate(-406.06423,2679.218)"
   style="stroke:#4ba6c2;stroke-opacity:1" /><g
   id="g11"
   transform="translate(-406.06423,2679.218)"
   style="stroke:#4ba6c2;stroke-opacity:1" /><g
   id="g13"
   transform="translate(-406.06423,2679.218)"
   style="stroke:#4ba6c2;stroke-opacity:1" /><g
   id="g15"
   transform="translate(-406.06423,2679.218)"
   style="stroke:#4ba6c2;stroke-opacity:1" /><g
   id="g17"
   transform="translate(-406.06423,2679.218)"
   style="stroke:#4ba6c2;stroke-opacity:1" /><g
   id="g19"
   transform="translate(-406.06423,2679.218)"
   style="stroke:#4ba6c2;stroke-opacity:1" /><g
   id="g21"
   transform="translate(-406.06423,2679.218)"
   style="stroke:#4ba6c2;stroke-opacity:1" /><g
   id="g23"
   transform="translate(-406.06423,2679.218)"
   style="stroke:#4ba6c2;stroke-opacity:1" /><g
   id="g25"
   transform="translate(-406.06423,2679.218)"
   style="stroke:#4ba6c2;stroke-opacity:1" /><g
   id="g27"
   transform="translate(-406.06423,2679.218)"
   style="stroke:#4ba6c2;stroke-opacity:1" /><g
   id="g29"
   transform="translate(-406.06423,2679.218)"
   style="stroke:#4ba6c2;stroke-opacity:1" /><g
   id="g31"
   transform="translate(-406.06423,2679.218)"
   style="stroke:#4ba6c2;stroke-opacity:1" /><g
   id="g33"
   transform="translate(-406.06423,2679.218)"
   style="stroke:#4ba6c2;stroke-opacity:1" /><g
   id="g35"
   transform="translate(-406.06423,2679.218)"
   style="stroke:#4ba6c2;stroke-opacity:1" /><g
   id="g37"
   transform="translate(-406.06423,2679.218)"
   style="stroke:#4ba6c2;stroke-opacity:1" /><text
   xml:space="preserve"
   style="font-style:normal;font-weight:normal;font-size:31.6378px;line-height:125%;font-family:sans-serif;letter-spacing:0px;word-spacing:0px;fill:url(#linearGradient1886);fill-opacity:1;stroke:#3b92ad;stroke-width:0.790945px;stroke-linecap:butt;stroke-linejoin:miter;stroke-opacity:1"
   x="80.720703"
   y="2029.4121"
   id="text4189"><tspan
     sodipodi:role="line"
     id="tspan4191"
     x="80.720703"
     y="2029.4121"
     style="font-style:normal;font-variant:normal;font-weight:normal;font-stretch:normal;font-size:494.341px;font-family:Midnew;-inkscape-font-specification:Midnew;fill:url(#linearGradient1886);fill-opacity:1;stroke:#3b92ad;stroke-width:0.790945px;stroke-opacity:1">FUSION</tspan></text>
<g
   id="l4nLiYArZ3Hr3dx6zaqd97y"
   fill="#c0dadc"
   transform="matrix(0.14363503,0,0,0.14363503,364.45552,75.89936)"
   style="fill:url(#linearGradient1989);fill-opacity:1"><g
     id="g352"
     style="fill:url(#linearGradient2005);fill-opacity:1"><path
       id="p158SMroen"
       d="m 5410,10029 c 0,-11 9,-20 23,-23 12,-2 51,-9 87,-16 584,-104 1153,-428 1541,-878 292,-339 478,-727 555,-1160 23,-126 27,-176 27,-352 1,-263 -25,-444 -100,-690 -127,-421 -354,-785 -683,-1096 -309,-291 -712,-505 -1126,-598 -206,-47 -306,-57 -644,-66 -317,-8 -422,-18 -609,-56 -283,-58 -587,-186 -845,-359 -544,-362 -935,-944 -1056,-1569 -40,-212 -44,-259 -44,-526 1,-241 3,-278 27,-410 102,-569 382,-1050 837,-1441 320,-276 780,-503 1180,-582 211,-43 980,-54 1051,-16 11,5 27,8 37,5 9,-3 44,-1 77,5 33,6 80,12 105,15 25,2 56,8 70,13 14,5 32,9 40,9 15,0 68,8 105,17 21,4 67,13 100,19 11,2 20,4 20,6 0,1 9,3 20,5 11,2 31,6 45,10 14,4 33,7 42,7 10,-1 20,4 23,9 4,5 11,7 16,4 5,-4 15,-3 22,2 6,4 18,9 25,10 23,5 47,11 52,13 3,1 10,3 15,5 6,1 12,3 15,4 6,3 29,9 50,13 8,2 21,7 28,11 6,5 12,5 12,1 0,-3 7,-1 15,6 8,7 15,9 15,5 0,-4 7,-2 15,5 8,7 15,10 15,6 0,-4 100,27 160,51 8,4 17,7 20,8 3,1 14,5 25,9 11,4 52,19 90,33 39,14 74,30 80,34 5,5 15,9 22,9 33,0 503,232 603,298 14,9 41,25 60,36 128,70 423,281 618,442 136,112 415,386 540,529 53,61 99,112 102,115 3,3 17,21 32,42 15,20 34,42 41,50 7,7 26,31 42,53 17,22 38,49 48,59 9,11 17,23 17,27 0,4 6,14 13,21 8,7 25,30 38,49 13,20 43,64 67,97 23,34 42,65 42,71 0,5 3,11 8,13 9,4 92,132 92,143 0,5 6,16 14,24 7,9 26,41 42,71 16,30 32,57 35,60 13,10 149,290 142,290 -5,0 -3,4 3,8 32,22 274,659 259,683 -3,4 -1,10 4,13 7,5 20,50 26,91 1,6 5,17 9,26 4,9 8,27 10,41 1,13 6,30 10,37 4,7 5,15 2,18 -3,3 -1,11 4,18 5,7 11,25 13,41 2,16 9,49 16,73 7,23 10,45 7,48 -3,3 -1,13 4,22 5,9 11,37 14,62 3,25 8,52 10,60 3,7 8,37 12,64 3,28 10,84 15,125 33,277 38,356 39,655 1,205 -3,324 -13,435 -3,30 -8,91 -12,135 -4,44 -11,85 -16,91 -5,6 -6,13 -3,16 8,8 -17,167 -27,173 -4,3 -6,12 -2,20 3,8 2,23 -2,33 -4,9 -9,37 -12,62 -2,25 -8,46 -12,48 -5,2 -7,12 -4,22 3,12 0,20 -6,20 -7,0 -9,5 -6,10 8,14 -26,160 -37,160 -5,0 -6,4 -3,10 8,13 -36,170 -47,170 -5,0 -6,5 -3,10 8,13 -83,290 -96,290 -4,0 -6,6 -3,14 3,7 -1,20 -9,27 -7,8 -12,19 -10,25 2,7 -3,18 -11,27 -8,8 -13,17 -10,20 8,7 -47,137 -58,137 -5,0 -6,5 -3,10 3,6 1,10 -5,10 -6,0 -9,4 -5,9 7,12 -25,81 -37,81 -5,0 -7,4 -3,10 7,12 -112,250 -126,250 -5,0 -7,5 -4,10 3,6 1,10 -5,10 -6,0 -8,5 -5,10 3,6 1,10 -5,10 -6,0 -9,4 -5,10 3,5 -2,18 -12,28 -10,10 -19,27 -21,37 -2,11 -11,27 -21,35 -10,9 -16,20 -14,26 2,6 -7,22 -19,36 -13,14 -24,32 -26,39 -5,21 -54,89 -64,89 -5,0 -6,5 -3,10 3,6 0,13 -9,16 -8,3 -12,12 -9,20 3,9 -1,14 -12,14 -9,0 -13,4 -10,10 3,5 -5,21 -19,35 -14,14 -22,25 -18,25 4,0 -2,7 -13,16 -11,8 -19,17 -17,19 7,13 0,25 -14,25 -8,0 -12,5 -9,10 3,6 -1,13 -9,16 -9,3 -13,10 -11,15 3,4 -3,14 -14,20 -10,7 -17,19 -14,26 3,7 -2,13 -12,13 -9,0 -14,4 -10,9 3,5 -7,19 -21,30 -15,12 -23,21 -18,21 5,1 -1,9 -13,19 -12,10 -20,21 -17,24 3,2 -6,14 -20,25 -14,10 -23,22 -20,25 3,2 -6,14 -20,25 -14,10 -23,22 -20,24 2,3 -12,20 -33,39 -21,18 -37,36 -36,40 2,4 -12,20 -30,35 -17,15 -31,31 -30,35 1,4 -37,44 -85,89 -48,45 -87,87 -87,93 0,5 -8,13 -17,16 -9,3 -51,43 -93,89 -42,45 -83,82 -91,82 -9,0 -13,4 -10,9 6,9 -55,61 -71,61 -5,0 -19,14 -31,30 -13,17 -29,30 -38,30 -8,0 -12,4 -9,10 3,5 -6,16 -22,22 -15,7 -41,27 -58,44 -16,18 -38,34 -48,35 -10,2 -18,8 -17,12 1,13 -56,57 -75,57 -9,0 -13,5 -10,10 3,6 -3,10 -15,10 -12,0 -18,5 -15,10 3,6 2,10 -3,10 -5,0 -22,11 -38,25 -16,14 -32,25 -35,25 -3,0 -19,11 -35,25 -16,14 -33,25 -37,25 -5,0 -15,7 -23,15 -9,8 -24,15 -35,15 -11,0 -18,4 -15,8 3,5 -7,15 -22,23 -15,8 -33,20 -40,27 -7,6 -22,12 -33,12 -11,0 -18,4 -14,10 3,5 -12,14 -34,21 -22,7 -38,16 -35,20 3,5 -1,9 -9,9 -8,0 -24,9 -37,20 -13,11 -41,25 -62,31 -21,5 -37,13 -34,17 6,10 -238,132 -264,132 -11,0 -20,4 -20,8 0,5 -19,17 -42,27 -24,9 -55,23 -70,31 -14,8 -36,14 -47,14 -12,0 -21,5 -21,10 0,6 -9,10 -19,10 -11,0 -23,5 -26,10 -3,6 -15,10 -26,10 -11,0 -27,7 -35,15 -9,8 -29,15 -45,15 -16,0 -29,4 -29,10 0,5 -12,12 -27,16 -16,3 -37,9 -48,13 -11,5 -42,14 -70,20 -27,7 -52,16 -55,20 -7,11 -43,22 -88,26 -20,2 -38,8 -40,14 -2,5 -9,8 -17,5 -7,-3 -24,0 -37,7 -13,7 -28,12 -35,11 -6,-1 -14,2 -17,7 -3,5 -15,7 -26,4 -11,-3 -20,-1 -20,5 0,10 -33,18 -120,29 -25,3 -48,10 -51,15 -3,5 -25,9 -48,10 -23,0 -44,4 -47,9 -3,5 -27,9 -54,9 -27,0 -52,5 -55,10 -3,6 -17,7 -30,4 -12,-3 -26,-1 -29,5 -4,5 -13,8 -21,4 -8,-3 -23,-2 -32,3 -10,4 -31,9 -48,10 -16,1 -45,4 -63,7 -79,14 -193,25 -259,25 -65,0 -73,-2 -73,-19 z M 5204,3705 c 107,-21 248,-69 323,-111 272,-152 467,-401 550,-700 24,-87 27,-117 27,-249 0,-132 -3,-162 -27,-249 -118,-427 -460,-740 -887,-811 -619,-104 -1230,424 -1230,1062 0,260 114,534 304,732 92,95 170,154 281,212 125,66 188,87 360,123 50,10 227,5 299,-9 z"
       style="fill:url(#linearGradient2001);fill-opacity:1" /><path
       id="pLEchzPP6"
       d="m 5087,8729 c -155,-13 -276,-48 -411,-117 -283,-145 -486,-394 -572,-702 -22,-80 -27,-122 -31,-265 -6,-186 2,-261 42,-398 48,-165 133,-312 255,-441 168,-177 367,-285 610,-332 89,-17 349,-19 436,-3 237,42 451,156 616,327 143,149 225,296 280,502 26,98 36,386 18,499 -75,446 -410,805 -848,906 -55,13 -270,37 -297,34 -5,-1 -50,-5 -98,-10 z"
       style="fill:url(#linearGradient2003);fill-opacity:1" /></g></g><g
   id="l3yuB1QVyaG2GeRVBQ03pEz"
   fill="#3a3b4e"
   transform="matrix(0.14363503,0,0,0.14363503,364.45552,75.89936)"
   style="fill:url(#linearGradient1981);fill-opacity:1"><g
     id="g357"
     style="fill:url(#linearGradient2011);fill-opacity:1"><path
       id="p16nFCMDIG"
       d="M 4800,10059 C 3574,9977 2446,9458 1584,8579 307,7276 -145,5396 396,3640 653,2806 1170,2009 1835,1421 2349,966 2935,629 3585,415 3960,291 4437,200 4785,186 c 133,-5 134,-4 5,15 -621,91 -1238,427 -1640,894 -296,344 -478,726 -557,1165 -23,128 -26,172 -27,380 0,235 5,290 44,496 121,625 512,1207 1056,1569 258,173 562,301 845,359 187,38 292,48 609,56 338,9 438,19 644,66 854,192 1554,848 1809,1694 78,255 101,425 100,720 0,209 -3,251 -26,382 -61,339 -179,629 -372,918 -348,521 -903,911 -1529,1075 -328,86 -580,108 -946,84 z m 635,-1379 c 450,-102 789,-459 865,-912 18,-107 8,-339 -18,-438 -55,-205 -137,-353 -280,-502 -165,-171 -379,-285 -616,-327 -85,-16 -288,-13 -376,3 -170,33 -346,109 -472,205 -80,61 -201,188 -251,264 -89,133 -153,301 -178,461 -18,115 -6,333 26,446 111,404 431,708 842,800 122,27 335,27 458,0 z"
       style="fill:url(#linearGradient2007);fill-opacity:1" /><path
       id="pu8ZPUBQO"
       d="m 4875,3744 c -172,-36 -235,-57 -360,-123 -251,-132 -439,-354 -531,-627 -72,-217 -74,-462 -4,-688 98,-315 351,-579 667,-698 235,-88 530,-90 757,-6 351,128 603,403 703,764 25,91 28,114 28,279 0,165 -3,188 -28,279 -83,300 -278,548 -550,700 -75,42 -216,90 -323,111 -72,14 -306,19 -359,9 z"
       style="fill:url(#linearGradient2009);fill-opacity:1" /></g></g></svg>
