<?xml version="1.0" encoding="UTF-8" standalone="no"?>
<svg
   viewBox="0 0 3140.532 3044.6289"
   version="1.1"
   id="svg12"
   sodipodi:docname="fusion.svg"
   inkscape:version="1.3.2 (091e20e, 2023-11-25, custom)"
   width="3140.532"
   height="3044.6289"
   xmlns:inkscape="http://www.inkscape.org/namespaces/inkscape"
   xmlns:sodipodi="http://sodipodi.sourceforge.net/DTD/sodipodi-0.dtd"
   xmlns:xlink="http://www.w3.org/1999/xlink"
   xmlns="http://www.w3.org/2000/svg"
   xmlns:svg="http://www.w3.org/2000/svg">
  <sodipodi:namedview
     id="namedview12"
     pagecolor="#ffffff"
     bordercolor="#000000"
     borderopacity="0.25"
     inkscape:showpageshadow="2"
     inkscape:pageopacity="0.0"
     inkscape:pagecheckerboard="0"
     inkscape:deskcolor="#d1d1d1"
     inkscape:zoom="0.16714237"
     inkscape:cx="-3033.3423"
     inkscape:cy="2922.6582"
     inkscape:window-width="3840"
     inkscape:window-height="2126"
     inkscape:window-x="-11"
     inkscape:window-y="-11"
     inkscape:window-maximized="1"
     inkscape:current-layer="svg12" />
  <defs
     id="defs8">
    <linearGradient
       id="e">
      <stop
         style="stop-color:#8eecff;stop-opacity:1"
         offset="0"
         id="stop1" />
      <stop
         style="stop-color:#156ef6;stop-opacity:1"
         offset="1"
         id="stop2" />
    </linearGradient>
    <linearGradient
       id="d">
      <stop
         style="stop-color:#2e7cf5;stop-opacity:1"
         offset="0"
         id="stop3" />
      <stop
         style="stop-color:#f52e57;stop-opacity:1"
         offset="1"
         id="stop4" />
    </linearGradient>
    <linearGradient
       id="f">
      <stop
         style="stop-opacity: 1; stop-color: rgb(144, 236, 255);"
         offset="0"
         id="stop5" />
      <stop
         style="stop-opacity: 1; stop-color: rgb(84, 147, 250);"
         offset="1"
         id="stop6" />
    </linearGradient>
    <linearGradient
       id="a">
      <stop
         style="stop-color:#00a4e2;stop-opacity:1"
         offset="0"
         id="stop7" />
      <stop
         style="stop-color:#e20067;stop-opacity:1"
         offset="1"
         id="stop8" />
    </linearGradient>
    <linearGradient
       id="g"
       x1="1170.969"
       y1="2126.9771"
       x2="1165.312"
       y2="1702.713"
       gradientUnits="userSpaceOnUse"
       gradientTransform="matrix(1.3877543,0,0,1.3877543,12.401189,17.049148)"
       xlink:href="#a" />
    <linearGradient
       id="j"
       gradientUnits="userSpaceOnUse"
       x1="6734.542"
       y1="10380.819"
       x2="6734.542"
       y2="-134.58299"
       xlink:href="#d" />
    <linearGradient
       id="k"
       gradientUnits="userSpaceOnUse"
       x1="6734.542"
       y1="10380.819"
       x2="6734.542"
       y2="-134.58299"
       xlink:href="#d" />
    <linearGradient
       id="i"
       gradientUnits="userSpaceOnUse"
       x1="6734.542"
       y1="10380.819"
       x2="6734.542"
       y2="-134.58299"
       xlink:href="#d" />
    <linearGradient
       id="n"
       gradientUnits="userSpaceOnUse"
       x1="4568.4482"
       y1="10213.438"
       x2="4568.4482"
       y2="101.718"
       xlink:href="#e" />
    <linearGradient
       id="o"
       gradientUnits="userSpaceOnUse"
       x1="4568.4482"
       y1="10380.818"
       x2="4568.4482"
       y2="101.718"
       xlink:href="#f" />
    <linearGradient
       id="m"
       gradientUnits="userSpaceOnUse"
       x1="4568.4482"
       y1="10380.818"
       x2="4568.4482"
       y2="101.718"
       xlink:href="#f" />
  </defs>
  <text
     style="font-style:normal;font-weight:400;font-size:46.5545px;line-height:125%;font-family:sans-serif;letter-spacing:0px;word-spacing:0px;white-space:pre;fill:url(#g);fill-opacity:1;stroke:#3b92ad;stroke-width:1.16386px;stroke-linecap:butt;stroke-linejoin:miter;stroke-opacity:1"
     x="71.6334"
     y="2940.4104"
     id="text8"><tspan
       x="71.6334"
       y="2940.4104"
       style="font-style:normal;font-variant:normal;font-weight:400;font-stretch:normal;font-size:727.35px;font-family:Midnew;word-spacing:0px;fill:url(#g);fill-opacity:1;stroke:#3b92ad;stroke-width:1.16386px;stroke-opacity:1"
       id="tspan8">FUSION</tspan></text>
  <g
     style="fill:url(#i);fill-opacity:1"
     fill="#c0dadc"
     transform="matrix(0.2113636,0,0,0.2113636,489.14366,65.853648)"
     id="g9">
    <path
       d="m 5410,10029 c 448.808,-107.762 916.52,-265.823 1284.366,-569.304 837.857,-620.854 1201.74,-1816.799 766.636,-2780.523 C 7081.078,5718.803 6058.416,5092.608 5032.975,5148.47 3791.52,5192.697 2642.045,4159.256 2543,2923.625 2428.136,2011.261 2888.758,1079.413 3663.125,592.735 4168.502,237.796 4792.15,129.871 5398.275,169.212 7050.155,251.733 8618.02,1236.24 9426,2680 c 840.823,1455.295 847.89,3352.457 29,4810 -294.502,546.185 -704.083,1035.539 -1190,1440 -774.577,649.658 -1766.228,1047.629 -2782,1118 l -60.875,-3.125 z M 5204,3705 C 5912.358,3604.662 6366.094,2706.043 5948.672,2099.125 5638.54,1541.158 4809.989,1392.37 4342.875,1837.75 3874.647,2207.083 3835.237,2964.549 4264,3379 c 237.398,248.02 597.253,390.503 940,326 z"
       style="fill:url(#j);fill-opacity:1"
       id="path8" />
    <path
       d="M 5087,8729 C 4451.895,8694.311 3965.719,8049.319 4076.75,7427.625 4137.04,6791.835 4801.73,6348.165 5416,6471 c 593.967,87.122 1011.551,692.262 919.46,1278.135 C 6278.829,8353.663 5684.375,8808.797 5087,8729 Z"
       style="fill:url(#k);fill-opacity:1"
       id="path9" />
  </g>
  <g
     style="fill:url(#l);fill-opacity:1"
     transform="matrix(1.4714817,0,0,1.4714817,-47.146611,-45.83175)"
     id="g12">
    <g
       style="fill:url(#m);fill-opacity:1"
       fill="#3a3b4e"
       transform="matrix(0.14364,0,0,0.14364,364.456,75.9)"
       id="g11">
      <path
         d="M 4800,10059 C 2860.18,9956.254 1068.256,8592.688 447.392,6752.286 -189.21,4988.622 297.142,2890.117 1651.963,1591.744 2508.54,749.534 3681.231,220.007 4885.75,184.5 3708.242,313.081 2615.825,1290.162 2567.406,2510.875 c -105.54,1267.718 933.8,2487.316 2199.344,2592.375 599.017,11.236 1230.302,40.452 1743.877,390.326 1056.26,626.36 1496.158,2106.367 895.342,3188.737 C 6917.13,9613.561 5838.105,10155.844 4800,10059 Z m 635,-1379 c 705.769,-128.287 1106,-1006.151 740,-1622 -328.322,-641.756 -1300.023,-767.168 -1773.75,-222.625 -526.472,511.77 -327.576,1499.615 354.938,1771.254 210.65,99.584 451.933,113.648 678.812,73.371 z"
         style="fill:url(#n);fill-opacity:1"
         id="path10" />
      <path
         d="m 4875,3744 c -703.445,-84.476 -1164.073,-913.7 -851.164,-1553.55 278.734,-681.362 1268.52,-872.658 1779.566,-341.148 522.554,469.36 411.619,1400.684 -196.313,1745.084 C 5389.662,3731.079 5126.83,3766.232 4875,3744 Z"
         style="fill:url(#o);fill-opacity:1"
         id="path11" />
    </g>
  </g>
</svg>
